HIERARCHY
ROOT Hips
{
  OFFSET 74.0196 97.4445 -31.1285
  CHANNELS 6 Xposition Yposition Zposition Zrotation Xrotation Yrotation
  JOINT RightUpLeg
  {
    OFFSET -8.9458 -8.66707 0.101652
    CHANNELS 3 Zrotation Xrotation Yrotation
    JOINT RightLeg
    {
      OFFSET -2.94875e-013 -44.4227 1.3727
      CHANNELS 3 Zrotation Xrotation Yrotation
      JOINT RightFoot
      {
        OFFSET 0.253549 -42.0924 -1.46059
        CHANNELS 3 Zrotation Xrotation Yrotation
        JOINT RightToes
        {
          OFFSET 0.04 -4.41509 8.4991
          CHANNELS 3 Zrotation Xrotation Yrotation
          End Site
          {
            OFFSET -0.08 -0.137448 9.77979
          }
        }
      }
    }
  }
  JOINT Spine
  {
    OFFSET -5.68434e-014 11.8905 -6.39488e-014
    CHANNELS 3 Zrotation Xrotation Yrotation
    JOINT Spine1
    {
      OFFSET 5.68434e-014 25.6574 0.127663
      CHANNELS 3 Zrotation Xrotation Yrotation
      JOINT HEad
      {
        OFFSET 4.26326e-014 8.73416 0.011341
        CHANNELS 3 Zrotation Xrotation Yrotation
        End Site
        {
          OFFSET -0.29 12.7742 2.51395
        }
      }
      JOINT LeftShoulder1
      {
        OFFSET 8.99 -0.362252 -0.22
        CHANNELS 3 Zrotation Xrotation Yrotation
        JOINT LeftArm
        {
          OFFSET 10.2827 -0.00338 0.322123
          CHANNELS 3 Zrotation Xrotation Yrotation
          JOINT LeftForeArm
          {
            OFFSET 32.7669 0.099144 -1.42434
            CHANNELS 3 Zrotation Xrotation Yrotation
            JOINT LeftHand
            {
              OFFSET 27.5643 0.085362 1.02216
              CHANNELS 3 Zrotation Xrotation Yrotation
              End Site
              {
                OFFSET 16.7443 -0.6 1.50291
              }
            }
          }
        }
      }
      JOINT RightShoulder
      {
        OFFSET -8.99 -0.362252 -0.22
        CHANNELS 3 Zrotation Xrotation Yrotation
        JOINT RightArm
        {
          OFFSET -10.2827 -0.00338 0.322123
          CHANNELS 3 Zrotation Xrotation Yrotation
          JOINT RightForeArm
          {
            OFFSET -32.8971 0.099144 -1.42434
            CHANNELS 3 Zrotation Xrotation Yrotation
            JOINT RightHand
            {
              OFFSET -27.4921 0.085362 1.02216
              CHANNELS 3 Zrotation Xrotation Yrotation
              End Site
              {
                OFFSET -16.6312 -0.6 1.50291
              }
            }
          }
        }
      }
    }
  }
  JOINT LeftUpLeg
  {
    OFFSET 8.9458 -8.66707 0.101652
    CHANNELS 3 Zrotation Xrotation Yrotation
    JOINT LeftLeg
    {
      OFFSET 7.10543e-014 -44.4227 1.3727
      CHANNELS 3 Zrotation Xrotation Yrotation
      JOINT LeftFoot
      {
        OFFSET -0.253549 -42.0924 -1.46059
        CHANNELS 3 Zrotation Xrotation Yrotation
        JOINT LeftToes
        {
          OFFSET -0.04 -4.41509 8.4991
          CHANNELS 3 Zrotation Xrotation Yrotation
          End Site
          {
            OFFSET 0.08 -0.047448 9.77979
          }
        }
      }
    }
  }
}
MOTION
Frames:	18
Frame Time:	0.0166667
71.6894 95.9224 89.8939 5.86958 -1.63403 153.864 -6.87559 -17.8794 -0.897263 -6.04403 57.6208 19.1168 14.0991 -4.75684 -0.513387 -18.6492 -32.8241 3.75894 -0.91983 3.34709 2.16336 -1.61577 6.37693 4.82814 -7.117 2.20003 16.8938 -5.03302e-021 -3.88251e-019 1.21329e-020 -55.2992 -55.391 -35.0005 -15.5139 37.3858 -76.6415 25.3763 4.71817 -19.2365 23.8286 7.25643 25.4313 59.0678 -33.3714 36.1325 -9.20533 49.5211 130.101 -25.6466 14.4837 -25.303 18.7401 -22.043 4.2163 8.41496 21.3352 -28.2523 -17.0344 -0.635801 1.04076 6.23024 -8.6794 -2.31679 
71.6004 96.0459 90.0123 5.58183 -1.95062 153.822 -7.48343 -17.4882 -0.770405 -5.34842 57.6763 17.3054 12.739 -4.65112 -0.489437 -18.6919 -32.5364 2.9033 -0.951982 3.52173 2.40875 -1.74105 6.7256 5.34322 -7.06609 1.35075 16.2372 -5.03302e-021 -3.88251e-019 1.21329e-020 -59.3777 -57.0638 -34.0801 -16.7357 41.0951 -79.2562 24.5235 4.47096 -21.2006 22.7831 6.78168 24.6375 60.2921 -32.6162 36.2589 -8.53441 49.9846 129.599 -25.1813 14.3598 -25.1356 18.5776 -22.0418 4.20346 8.38206 20.5979 -28.4657 -17.0052 -1.44067 0.923953 5.11181 -6.97024 -1.30537 
71.5358 96.1044 90.1167 5.35468 -2.10557 153.814 -8.21467 -16.679 -0.460201 -4.33088 57.4859 15.2117 11.3913 -3.84158 -0.52903 -19.1112 -32.8182 1.94498 -0.92819 3.70472 2.63997 -1.7599 7.10005 5.83188 -6.93319 0.664644 15.5897 -5.03302e-021 -3.88251e-019 1.21329e-020 -60.4056 -55.7847 -31.0955 -15.1814 41.9794 -83.8649 24.7465 4.304 -21.7113 21.829 6.336 23.8012 61.31 -31.9858 36.2686 -8.16482 50.3008 129.381 -24.835 14.3101 -25.2053 18.4342 -22.049 4.32932 8.36753 20.1158 -28.7326 -17.0071 -1.96034 0.849744 4.40743 -5.92573 -0.677716 
71.5009 96.0913 90.2262 5.2039 -2.08561 153.87 -8.99413 -15.4474 0.0140582 -3.13096 56.974 13.1161 10.2859 -2.49812 -0.603776 -19.765 -33.455 0.991615 -0.847722 3.91625 2.83154 -1.66745 7.54178 6.23897 -6.80085 0.124812 15.0391 -5.03302e-021 -3.88251e-019 1.21329e-020 -60.4137 -53.1223 -27.635 -12.328 41.3584 -89.0921 25.7046 4.12026 -21.5053 20.9687 5.93219 22.9791 62.2602 -31.5162 36.2436 -8.22793 50.4914 129.548 -24.6923 14.3457 -25.4977 18.2717 -22.0835 4.47395 8.40993 19.934 -29.0265 -16.9827 -2.209 0.812977 4.12296 -5.50674 -0.397216 
71.4967 96.0026 90.3592 5.12531 -1.89904 153.976 -9.74456 -13.8422 0.596292 -2.00941 56.0848 11.4471 9.67355 -0.925765 -0.698317 -20.5328 -34.2573 0.0853923 -0.717759 4.1653 2.97544 -1.47636 8.06792 6.54428 -6.73644 -0.289273 14.6456 -5.03302e-021 -3.88251e-019 1.21329e-020 -60.6228 -50.56 -24.5495 -9.65436 40.5392 -93.6565 26.8579 3.88184 -21.3433 20.197 5.57458 22.2077 63.2672 -31.2075 36.2545 -8.70679 50.6076 130.069 -24.7567 14.4548 -25.9505 18.0714 -22.1589 4.50052 8.51567 20.088 -29.262 -16.9005 -2.26216 0.801416 4.20281 -5.60883 -0.365191 
71.5206 95.8338 90.534 5.1083 -1.56125 154.094 -10.4094 -11.9427 1.21868 -1.17893 54.8089 10.5217 9.69429 0.503864 -0.810876 -21.3831 -35.1289 -0.864598 -0.547176 4.45199 3.07481 -1.20928 8.67693 6.75157 -6.78066 -0.602728 14.4333 -5.03302e-021 -3.88251e-019 1.21329e-020 -61.0913 -48.346 -21.889 -7.80511 39.692 -97.1386 27.7771 3.59886 -21.5874 19.5158 5.26629 21.514 64.3933 -31.0257 36.3549 -9.46105 50.6948 130.802 -24.956 14.6074 -26.4789 17.8287 -22.28 4.31339 8.68219 20.5882 -29.3512 -16.7648 -2.18227 0.806143 4.5934 -6.14748 -0.490319 
71.5672 95.5779 90.769 5.14717 -1.08531 154.182 -10.9605 -9.83886 1.82311 -0.712037 53.1904 10.3832 10.2871 1.45366 -0.932213 -22.4235 -36.1261 -2.06168 -0.3434 4.77117 3.13952 -0.888679 9.35653 6.88014 -6.94472 -0.848105 14.3925 -5.03302e-021 -3.88251e-019 1.21329e-020 -61.7334 -46.645 -19.6236 -6.94492 38.9779 -99.5769 28.2543 3.29075 -22.3289 18.9346 5.01093 20.9223 65.6222 -30.9008 36.5839 -10.2944 50.7662 131.546 -25.1909 14.7661 -26.9919 17.5491 -22.4423 3.88901 8.91243 21.4141 -29.2412 -16.6041 -1.97294 0.827491 5.27949 -7.10241 -0.727923 
71.6299 95.2268 91.0817 5.24465 -0.481774 154.204 -11.3934 -7.62366 2.36778 -0.554935 51.3297 10.8141 11.1852 1.7191 -1.02829 -23.8976 -37.4557 -3.73251 -0.111402 5.11374 3.18413 -0.530382 10.0869 6.96082 -7.21476 -1.06066 14.4868 -5.03302e-021 -3.88251e-019 1.21329e-020 -62.4009 -45.5263 -17.7199 -6.87124 38.4523 -101.292 28.2967 2.99791 -23.4133 18.4627 4.81059 20.4504 66.873 -30.7416 36.9703 -11.0229 50.8029 132.1 -25.3847 14.8974 -27.4091 17.2475 -22.6307 3.26971 9.21402 22.5111 -28.9201 -16.4523 -1.57538 0.874694 6.28076 -8.51022 -1.07296 
71.7035 94.7794 91.4852 5.40792 0.232467 154.135 -11.7133 -5.39694 2.82596 -0.586402 49.3825 11.468 11.9955 1.2755 -1.05181 -26.0625 -39.3122 -6.00845 0.148481 5.4645 3.22572 -0.142243 10.8369 7.03252 -7.56008 -1.26536 14.6633 -5.03302e-021 -3.88251e-019 1.21329e-020 -62.9367 -44.9824 -16.1645 -7.19788 38.0829 -102.688 28.0652 2.75901 -24.5686 18.1046 4.66398 20.1038 68.0343 -30.4777 37.5302 -11.5143 50.7882 132.319 -25.5052 14.9807 -27.6722 16.9489 -22.8186 2.53432 9.58854 23.7809 -28.4048 -16.3379 -0.896951 0.961417 7.61911 -10.4164 -1.52411 
71.7867 94.2518 91.9841 5.63806 1.02234 153.97 -11.9255 -3.26989 3.18267 -0.670391 47.5344 12.0101 12.321 0.250826 -0.974205 -28.914 -41.5828 -8.79041 0.441211 5.79904 3.2801 0.272898 11.5583 7.13537 -7.94462 -1.46488 14.8654 -5.03302e-021 -3.88251e-019 1.21329e-020 -63.215 -44.9608 -14.9619 -7.53535 37.8109 -104.092 27.7789 2.5873 -25.5383 17.857 4.56561 19.8715 69.0095 -30.1109 38.2597 -11.708 50.7498 132.157 -25.5618 15.0102 -27.7517 16.6853 -22.9686 1.76486 10.0182 25.0711 -27.7284 -16.2799 0.145571 1.10002 9.2783 -12.8122 -2.05163 
71.8844 93.6843 92.5725 5.91641 1.82708 153.725 -12.0337 -1.35719 3.43334 -0.688766 45.9419 12.1977 11.8846 -1.14625 -0.808121 -31.9504 -43.7448 -11.6691 0.770071 6.08419 3.35773 0.7108 12.1863 7.29978 -8.33609 -1.63816 15.0456 -5.03302e-021 -3.88251e-019 1.21329e-020 -63.175 -45.3905 -14.1339 -7.61838 37.5897 -105.674 27.6236 2.47472 -26.1465 17.7115 4.50746 19.7306 69.7494 -29.7265 39.1282 -11.6257 50.7623 131.685 -25.5897 14.9945 -27.6546 16.485 -23.0418 1.02708 10.4629 26.181 -26.9459 -16.2851 1.57255 1.29468 11.1688 -15.5731 -2.58904 
72.0077 93.1403 93.235 6.19327 2.56447 153.451 -12.0467 0.244253 3.58021 -0.566073 44.6656 11.9113 10.6296 -2.70434 -0.601619 -34.3709 -45.2106 -14.0854 1.12374 6.28387 3.46143 1.15805 12.6479 7.53527 -8.71042 -1.75011 15.174 -5.03302e-021 -3.88251e-019 1.21329e-020 -62.8477 -46.1921 -13.7239 -7.34669 37.3964 -107.433 27.7013 2.41189 -26.3026 17.6579 4.48147 19.6563 70.2583 -29.4445 40.0751 -11.3715 50.8962 131.076 -25.6334 14.9539 -27.4313 16.3552 -23.0122 0.365918 10.869 26.893 -26.1509 -16.3374 3.28886 1.53311 13.1095 -18.4224 -3.04888 
72.1708 92.697 93.9478 6.3889 3.147 153.22 -11.9864 1.47597 3.62743 -0.287211 43.6412 11.1668 8.75624 -4.25176 -0.411474 -35.6491 -45.7469 -15.6805 1.46965 6.3671 3.58641 1.5868 12.876 7.82555 -9.04982 -1.75983 15.2371 -5.03302e-021 -3.88251e-019 1.21329e-020 -62.3555 -47.2703 -13.7891 -6.75957 37.2284 -109.245 28.0214 2.39863 -25.9978 17.6864 4.48225 19.633 70.5756 -29.3562 41.0083 -11.1121 51.1631 130.559 -25.7265 14.9165 -27.1773 16.2698 -22.875 -0.18895 11.1848 27.0227 -25.487 -16.3778 5.04399 1.77682 14.8306 -20.9341 -3.34182 
72.3833 92.4302 94.6795 6.41304 3.50238 153.117 -11.8872 2.3218 3.57818 0.102247 42.7215 10.1103 6.66404 -5.6656 -0.275437 -35.7852 -45.491 -16.4211 1.76384 6.31402 3.72154 1.95716 12.8221 8.13391 -9.33881 -1.62397 15.2298 -5.03302e-021 -3.88251e-019 1.21329e-020 -61.8769 -48.502 -14.3701 -5.98204 37.0979 -110.93 28.5171 2.43839 -25.3115 17.791 4.50907 19.663 70.7457 -29.4973 41.8109 -11.0213 51.5053 130.355 -25.8685 14.9097 -27.0173 16.1761 -22.6451 -0.61766 11.3691 26.4668 -25.1244 -16.2853 6.43589 1.95527 16.0109 -22.5967 -3.38332 
72.6436 92.3982 95.3923 6.19667 3.58844 153.207 -11.7909 2.79419 3.43762 0.524253 41.7609 8.96794 4.80549 -6.85417 -0.200498 -35.0863 -44.7247 -16.4489 1.97164 6.11827 3.85206 2.22896 12.4655 8.41663 -9.56601 -1.2998 15.1472 -5.03302e-021 -3.88251e-019 1.21329e-020 -61.5772 -49.7383 -15.4446 -5.17086 37.0249 -112.322 29.078 2.52505 -24.4068 17.965 4.56451 19.7639 70.7972 -29.8573 42.3594 -11.2037 51.83 130.604 -26.0143 14.9494 -27.0613 16.0195 -22.3425 -0.911183 11.3898 25.2261 -25.1916 -15.881 6.97957 1.97661 16.3484 -22.9303 -3.07905 
72.9348 92.6281 96.0453 5.72082 3.39725 153.519 -11.7364 2.91662 3.21552 0.910078 40.6886 7.96465 3.53412 -7.74304 -0.169712 -33.8839 -43.69 -15.9367 2.0858 5.78665 3.96361 2.37866 11.8184 8.63645 -9.73204 -0.755468 14.9834 -5.03302e-021 -3.88251e-019 1.21329e-020 -61.54 -50.8301 -16.8912 -4.46934 37.028 -113.316 29.5927 2.63597 -23.4901 18.1953 4.65091 19.9562 70.7315 -30.3918 42.5527 -11.6425 52.0474 131.302 -26.094 15.0301 -27.3452 15.7761 -21.9751 -1.07843 11.2209 23.3892 -25.6781 -14.9925 6.24554 1.77033 15.6425 -21.6297 -2.32276 
73.2276 93.11 96.6019 5.02623 2.95108 154.033 -11.7524 2.71472 2.92624 1.23274 39.5317 7.25328 3.01795 -8.27803 -0.159402 -32.4061 -42.5138 -15.0512 2.13132 5.33745 4.04638 2.41071 10.9244 8.76968 -9.8543 0.013097 14.7385 -5.03302e-021 -3.88251e-019 1.21329e-020 -61.7358 -51.6636 -18.4918 -3.97056 37.1113 -113.903 29.9875 2.73914 -22.7411 18.4585 4.76607 20.2474 70.5186 -31.0212 42.3395 -12.2041 52.0908 132.284 -26.0591 15.124 -27.7916 15.4711 -21.5287 -1.14993 10.8456 21.0797 -26.3457 -13.5882 4.03591 1.35041 13.8574 -18.7079 -1.05515 
73.4888 93.8034 97.0374 4.19722 2.29573 154.694 -11.8529 2.21888 2.58645 1.50913 38.3842 6.88403 3.23505 -8.43225 -0.154839 -30.7663 -41.2073 -13.9596 2.14953 4.79856 4.09684 2.35489 9.85098 8.80726 -9.96145 0.970795 14.4264 -5.03302e-021 -3.88251e-019 1.21329e-020 -62.0467 -52.1791 -19.9794 -3.68981 37.2484 -114.166 30.2451 2.8107 -22.2468 18.7255 4.90159 20.6213 70.1068 -31.6335 41.7298 -12.6961 51.9253 133.286 -25.9135 15.1924 -28.2308 15.1686 -20.9848 -1.1673 10.2632 18.4209 -26.7134 -11.9175 0.503299 0.83346 11.1502 -14.5633 0.627943 
